<svg width="17" height="18" viewBox="0 0 17 18" fill="none" xmlns="http://www.w3.org/2000/svg">
<path d="M10.5768 11.822L11.2799 13.43C11.2799 13.43 14.4438 14.1439 14.4438 15.8421C14.4438 17.0481 13.0376 17.0481 13.0376 17.0481H9.28785L7.44226 15.9587" stroke="#E2342D" stroke-width="1.6" stroke-linecap="round" stroke-linejoin="round"/>
<path d="M6.3592 11.822L5.65612 13.43C5.65612 13.43 2.49225 14.1439 2.49225 15.8421C2.49225 17.0481 3.89841 17.0481 3.89841 17.0481H5.59753L7.44315 15.9587L9.69887 14.4335" stroke="#E2342D" stroke-width="1.6" stroke-linecap="round" stroke-linejoin="round"/>
<path d="M1.08539 12.6267C1.08539 12.6267 2.8431 12.2248 3.89772 11.8227C4.95235 6.19462 8.1162 6.59663 8.46776 6.59663C8.81933 6.59663 11.9832 6.19462 13.0378 11.8227C14.0924 12.2248 15.8501 12.6267 15.8501 12.6267" stroke="#E2342D" stroke-width="1.6" stroke-linecap="round" stroke-linejoin="round"/>
<path d="M8.46713 4.84584C9.37319 4.84584 10.1077 4.06543 10.1077 3.10276C10.1077 2.14008 9.37319 1.35968 8.46713 1.35968C7.56106 1.35968 6.8266 2.14008 6.8266 3.10276C6.8266 4.06543 7.56106 4.84584 8.46713 4.84584Z" stroke="#E2342D" stroke-width="1.6" stroke-linecap="round" stroke-linejoin="round"/>
</svg>
